<svg width="20" height="20" viewBox="0 0 20 20" fill="none" xmlns="http://www.w3.org/2000/svg">
<path d="M10 10.8334C11.3807 10.8334 12.5 9.71409 12.5 8.33337C12.5 6.95266 11.3807 5.83337 10 5.83337C8.61929 5.83337 7.5 6.95266 7.5 8.33337C7.5 9.71409 8.61929 10.8334 10 10.8334Z" stroke="#B0B0B0" stroke-width="2" stroke-linecap="round" stroke-linejoin="round"/>
<path d="M9.99998 1.66669C8.23187 1.66669 6.53618 2.36907 5.28593 3.61931C4.03569 4.86955 3.33331 6.56524 3.33331 8.33335C3.33331 9.91002 3.66831 10.9417 4.58331 12.0834L9.99998 18.3334L15.4166 12.0834C16.3316 10.9417 16.6666 9.91002 16.6666 8.33335C16.6666 6.56524 15.9643 4.86955 14.714 3.61931C13.4638 2.36907 11.7681 1.66669 9.99998 1.66669V1.66669Z" stroke="#B0B0B0" stroke-width="2" stroke-linecap="round" stroke-linejoin="round"/>
</svg>
