<svg width="48" height="48" viewBox="0 0 48 48" fill="none" xmlns="http://www.w3.org/2000/svg">
<g clip-path="url(#clip0_7_230)">
<rect width="48" height="48" fill="white"/>
<mask id="path-1-inside-1_7_230" fill="white">
<path fill-rule="evenodd" clip-rule="evenodd" d="M18.3541 7C17.5363 7 16.8008 7.4979 16.4971 8.25722L15 12H8C3.58172 12 0 15.5817 0 20V34C0 38.4183 3.58172 42 8 42H40C44.4183 42 48 38.4183 48 34V20C48 15.5817 44.4183 12 40 12H33L31.5029 8.25722C31.1992 7.4979 30.4637 7 29.6459 7H18.3541Z"/>
</mask>
<path d="M16.4971 8.25722L19.2825 9.37139V9.37139L16.4971 8.25722ZM15 12V15H17.0311L17.7854 13.1142L15 12ZM33 12L30.2146 13.1142L30.9689 15H33V12ZM31.5029 8.25722L28.7175 9.37139V9.37139L31.5029 8.25722ZM19.2825 9.37139C19.1307 9.75105 18.763 10 18.3541 10V4C16.3095 4 14.471 5.24476 13.7117 7.14305L19.2825 9.37139ZM17.7854 13.1142L19.2825 9.37139L13.7117 7.14305L12.2146 10.8858L17.7854 13.1142ZM8 15H15V9H8V15ZM3 20C3 17.2386 5.23858 15 8 15V9C1.92487 9 -3 13.9249 -3 20H3ZM3 34V20H-3V34H3ZM8 39C5.23858 39 3 36.7614 3 34H-3C-3 40.0751 1.92487 45 8 45V39ZM40 39H8V45H40V39ZM45 34C45 36.7614 42.7614 39 40 39V45C46.0751 45 51 40.0751 51 34H45ZM45 20V34H51V20H45ZM40 15C42.7614 15 45 17.2386 45 20H51C51 13.9249 46.0751 9 40 9V15ZM33 15H40V9H33V15ZM28.7175 9.37139L30.2146 13.1142L35.7854 10.8858L34.2883 7.14305L28.7175 9.37139ZM29.6459 10C29.237 10 28.8693 9.75105 28.7175 9.37139L34.2883 7.14305C33.529 5.24475 31.6905 4 29.6459 4V10ZM18.3541 10H29.6459V4H18.3541V10Z" fill="#152C5B" mask="url(#path-1-inside-1_7_230)"/>
<circle cx="24" cy="27" r="6.5" stroke="#8186D5" stroke-width="3"/>
<path d="M35 19L41 19" stroke="#152C5B" stroke-width="3" stroke-linecap="round"/>
</g>
<defs>
<clipPath id="clip0_7_230">
<rect width="48" height="48" fill="white"/>
</clipPath>
</defs>
</svg>
