<svg width="48" height="48" viewBox="0 0 48 48" fill="none" xmlns="http://www.w3.org/2000/svg">
<rect width="48" height="48" fill="white"/>
<path d="M40 21V7.14992C40 6.56648 39.7452 6.01214 39.3025 5.63218L37.4637 4.05421C36.7474 3.43947 35.6988 3.40928 34.9482 3.98179L32 6.23077" stroke="#8186D5" stroke-width="3" stroke-linecap="round"/>
<path d="M1.5 24C1.5 22.6193 2.61929 21.5 4 21.5H44C45.3807 21.5 46.5 22.6193 46.5 24V26C46.5 27.3807 45.3807 28.5 44 28.5H4C2.61929 28.5 1.5 27.3807 1.5 26V24Z" stroke="#152C5B" stroke-width="3"/>
<path d="M5.5 28.5H42.5V38C42.5 39.933 40.933 41.5 39 41.5H9C7.067 41.5 5.5 39.933 5.5 38V28.5Z" stroke="#152C5B" stroke-width="3"/>
<path d="M10 46V43" stroke="#152C5B" stroke-width="3" stroke-linecap="round"/>
<path d="M38 46V43" stroke="#152C5B" stroke-width="3" stroke-linecap="round"/>
</svg>
