<svg width="48" height="47" viewBox="0 0 48 47" fill="none" xmlns="http://www.w3.org/2000/svg">
<path d="M6.83489 18.7859C7.27581 17.9922 8.11236 17.5 9.02028 17.5H39.5279C40.4748 17.5 41.3405 18.035 41.7639 18.882L43.7639 22.882C44.5951 24.5442 43.3863 26.5 41.5279 26.5H6.79806C4.89185 26.5 3.68693 24.4522 4.61266 22.7859L6.83489 18.7859Z" stroke="#152C5B" stroke-width="3"/>
<mask id="path-2-inside-1_7_205" fill="white">
<path d="M12 25C12.5523 25 13 25.4477 13 26L13 41C13 43.2091 11.2091 45 9 45C6.79086 45 5 43.2091 5 41L5 26C5 25.4477 5.44772 25 6 25L12 25Z"/>
</mask>
<path d="M12 25C12.5523 25 13 25.4477 13 26L13 41C13 43.2091 11.2091 45 9 45C6.79086 45 5 43.2091 5 41L5 26C5 25.4477 5.44772 25 6 25L12 25Z" stroke="#152C5B" stroke-width="6" mask="url(#path-2-inside-1_7_205)"/>
<mask id="path-3-inside-2_7_205" fill="white">
<path d="M42 25C42.5523 25 43 25.4477 43 26L43 41C43 43.2091 41.2091 45 39 45C36.7909 45 35 43.2091 35 41L35 26C35 25.4477 35.4477 25 36 25L42 25Z"/>
</mask>
<path d="M42 25C42.5523 25 43 25.4477 43 26L43 41C43 43.2091 41.2091 45 39 45C36.7909 45 35 43.2091 35 41L35 26C35 25.4477 35.4477 25 36 25L42 25Z" stroke="#152C5B" stroke-width="6" mask="url(#path-3-inside-2_7_205)"/>
<path d="M31 17V11" stroke="#152C5B" stroke-width="3" stroke-linecap="round"/>
<mask id="path-5-inside-3_7_205" fill="white">
<path d="M34 2C34.5523 2 35 2.44772 35 3L35 8C35 10.2091 33.2091 12 31 12C28.7909 12 27 10.2091 27 8L27 3C27 2.44772 27.4477 2 28 2L34 2Z"/>
</mask>
<path d="M34 2C34.5523 2 35 2.44772 35 3L35 8C35 10.2091 33.2091 12 31 12C28.7909 12 27 10.2091 27 8L27 3C27 2.44772 27.4477 2 28 2L34 2Z" stroke="#8186D6" stroke-width="6" mask="url(#path-5-inside-3_7_205)"/>
<path d="M16 17V11" stroke="#152C5B" stroke-width="3" stroke-linecap="round"/>
<mask id="path-7-inside-4_7_205" fill="white">
<path d="M19 2C19.5523 2 20 2.44772 20 3L20 8C20 10.2091 18.2091 12 16 12C13.7909 12 12 10.2091 12 8L12 3C12 2.44772 12.4477 2 13 2L19 2Z"/>
</mask>
<path d="M19 2C19.5523 2 20 2.44772 20 3L20 8C20 10.2091 18.2091 12 16 12C13.7909 12 12 10.2091 12 8L12 3C12 2.44772 12.4477 2 13 2L19 2Z" stroke="#8186D6" stroke-width="6" mask="url(#path-7-inside-4_7_205)"/>
</svg>
