<svg width="48" height="48" viewBox="0 0 48 48" fill="none" xmlns="http://www.w3.org/2000/svg">
<g clip-path="url(#clip0_7_224)">
<rect width="48" height="48" fill="white"/>
<path d="M30.5 39.5C30.5 40.6457 29.4516 42.1445 26.6771 43.4451C24.0221 44.6896 20.2488 45.5 16 45.5C11.7512 45.5 7.97793 44.6896 5.32294 43.4451C2.54839 42.1445 1.5 40.6457 1.5 39.5C1.5 38.3543 2.54839 36.8555 5.32294 35.5549C7.97793 34.3104 11.7512 33.5 16 33.5C20.2488 33.5 24.0221 34.3104 26.6771 35.5549C29.4516 36.8555 30.5 38.3543 30.5 39.5Z" stroke="#152C5B" stroke-width="3"/>
<path d="M28.5 13.6216C28.5 17.1211 27.0015 24.0146 24.5124 30.0609C23.2732 33.0711 21.8302 35.766 20.2827 37.681C18.6961 39.6445 17.2397 40.5 16 40.5C14.7603 40.5 13.3039 39.6445 11.7173 37.681C10.1698 35.766 8.72676 33.0711 7.48757 30.0609C4.99847 24.0146 3.5 17.1211 3.5 13.6216C3.5 6.96551 9.05743 1.5 16 1.5C22.9426 1.5 28.5 6.96551 28.5 13.6216Z" fill="white" stroke="#152C5B" stroke-width="3"/>
<circle cx="16" cy="15" r="4.5" stroke="#8186D5" stroke-width="3"/>
</g>
<defs>
<clipPath id="clip0_7_224">
<rect width="48" height="48" fill="white"/>
</clipPath>
</defs>
</svg>
